# xmcd
#
# Track frame offsets: 
#        150
#        14478
#        30127
#        48980
#        68431
#        78029
#        87739
#        103919
#        122215
#        142229
#        161633
#        182864
#        205490
#
# Disc length: 2994 seconds
#
# Revision: 0
# Processed by: cddbd v1.5.1PL0 Copyright (c) Steve Scherf et al.
# Submitted via: ExactAudioCopy v0.95a5
#
DISCID=b20bb00d
DTITLE=GP3 - Läbig im Inox Bade
DYEAR=2005
DGENRE=Blues
TTITLE0=I used to worry
TTITLE1=Mayge someday baby
TTITLE2=Perpetual blues machine
TTITLE3=Baila
TTITLE4=Eight days a week
TTITLE5=Nowehre man
TTITLE6=Days of long ago
TTITLE7=Blueboy
TTITLE8=Talk to your daughter
TTITLE9=Have a little faith in me
TTITLE10=Brown eyed girl
TTITLE11=Gigolo
TTITLE12=Two of us
EXTD=
EXTT0=
EXTT1=
EXTT2=
EXTT3=
EXTT4=
EXTT5=
EXTT6=
EXTT7=
EXTT8=
EXTT9=
EXTT10=
EXTT11=
EXTT12=
PLAYORDER=
